<svg width="130" height="50" viewBox="0 0 130 50" fill="none" xmlns="http://www.w3.org/2000/svg">
<g opacity="0.7">
<path d="M65.59 18C69.1233 17.6733 70.7467 20.34 70.46 26C70.46 26.58 70.2 26.88 69.68 26.89H68.45C68.01 26.89 67.8 26.61 67.8 26.1C68 22.1 67 20.4333 64.8 21.1C64.4583 22.7458 64.2675 24.4195 64.23 26.1C64.23 26.65 63.98 26.93 63.46 26.93H62.27C61.81 26.93 61.58 26.68 61.58 26.18C61.5446 23.0538 62.101 19.9492 63.22 17.03C63.2951 16.7841 63.4436 16.567 63.6455 16.4079C63.8475 16.2488 64.0934 16.1553 64.35 16.14H65.25C65.85 16.14 66.07 16.39 65.94 16.87L65.59 18ZM74.18 35.07C74.18 35.63 73.91 35.92 73.38 35.92H62.47C62.3729 35.935 62.2737 35.927 62.1802 35.8968C62.0867 35.8666 62.0015 35.8149 61.9316 35.7459C61.8616 35.677 61.8088 35.5926 61.7772 35.4995C61.7457 35.4064 61.7364 35.3073 61.75 35.21V28.81C61.75 28.27 61.99 28 62.45 28H73.38C73.91 28 74.18 28.25 74.18 28.75V35.07ZM71.55 33.3V30.67H64.25V33.39L71.55 33.3ZM74.18 26.14C74.18 26.65 73.95 26.91 73.48 26.91H72.15C71.66 26.91 71.42 26.64 71.42 26.1V16.45C71.42 15.97 71.64 15.74 72.1 15.74H73.52C73.96 15.74 74.18 15.97 74.18 16.45V26.14Z" fill="#424142"/>
<path d="M89.48 21.2999C89.97 21.2999 90.21 21.5899 90.21 22.1499V23.6499C90.21 24.2199 89.98 24.4999 89.51 24.4999H88.75V35.1299C88.75 35.6799 88.52 35.9599 88.08 35.9599H86.71C86.26 35.9599 86.03 35.7099 86.03 35.2299V34.7199H76.88C76.36 34.7199 76.09 34.4299 76.09 33.8499V32.6999C76.09 32.0999 76.34 31.8099 76.83 31.8099H79.18V30.6499C77.3667 30.2099 76.4467 28.7799 76.42 26.3599C76.3041 25.0371 76.5567 23.708 77.15 22.5199H76.74C76.3 22.5199 76.08 22.1866 76.08 21.5199V20.4199C76.08 19.7299 76.32 19.4199 76.81 19.4199H84.43C84.93 19.4199 85.18 19.7399 85.18 20.4199V21.7599C85.18 22.3099 84.94 22.5899 84.41 22.5899H83.85C84.4296 23.7822 84.6749 25.1093 84.56 26.4299C84.56 28.8966 83.66 30.3333 81.86 30.7399V31.8799H86V16.6099C86 16.0399 86.26 15.7599 86.72 15.7599H88.05C88.49 15.7599 88.72 16.0099 88.72 16.5099V21.2999H89.48ZM78.21 18.5099C77.71 18.5099 77.46 18.1999 77.46 17.5799V16.6299C77.46 16.0499 77.71 15.7599 78.21 15.7599H82.92C83.4 15.7599 83.64 16.0499 83.64 16.6299V17.6299C83.64 18.2099 83.44 18.4999 83.03 18.4999L78.21 18.5099ZM80.46 22.3999C79.58 22.3999 79.13 23.4499 79.13 25.5499C79.13 27.3199 79.6 28.1999 80.53 28.1999C81.46 28.1999 81.86 27.3199 81.86 25.5499C81.86 23.4499 81.4 22.3999 80.46 22.3999V22.3999Z" fill="#424142"/>
<path d="M97 25.8C96.54 25.8 96.3 25.53 96.29 25.01V16.51C96.29 15.99 96.51 15.74 96.95 15.74H108.54C108.98 15.74 109.19 15.95 109.19 16.47V17.86C109.204 17.9521 109.196 18.0461 109.166 18.1344C109.137 18.2228 109.087 18.3029 109.021 18.3682C108.954 18.4336 108.874 18.4823 108.785 18.5104C108.696 18.5385 108.602 18.5452 108.51 18.53H99.14V19.53H108.14C108.55 19.53 108.76 19.78 108.76 20.32V21.23C108.76 21.72 108.53 21.96 108.07 21.96H99.07V22.96H108.46C108.93 22.96 109.16 23.23 109.16 23.75V25C109.16 25.54 108.92 25.81 108.43 25.81L97 25.8ZM97 29.7C96.54 29.7 96.32 29.45 96.32 28.93V27.7C96.32 27.17 96.56 26.91 97.05 26.91H108.54C109 26.91 109.22 27.16 109.22 27.66V28.91C109.22 29.44 108.97 29.7 108.47 29.7H97ZM97 33.65C96.56 33.65 96.34 33.4 96.34 32.9V31.62C96.34 31.11 96.55 30.86 96.97 30.86H108.54C109.01 30.86 109.24 31.11 109.24 31.6V35.17C109.24 35.68 109.01 35.94 108.54 35.94H107.16C106.72 35.94 106.49 35.69 106.49 35.19V33.65H97Z" fill="#424142"/>
<path d="M118.25 16.14C118.61 16.14 118.77 16.45 118.72 17.05C118.593 21.4233 117.447 24.63 115.28 26.67C115.081 26.8867 114.84 27.0605 114.572 27.1809C114.304 27.3013 114.014 27.3656 113.72 27.37H112.37C112.02 27.37 111.81 27.27 111.73 27.06C111.65 26.85 111.73 26.61 112.03 26.32C113.054 25.5004 113.892 24.4716 114.487 23.3024C115.082 22.1332 115.42 20.8505 115.48 19.54C115.54 19.19 115.42 19.02 115.14 19.02H111.62C111.24 19.02 111.04 18.78 111.04 18.31V16.87C111.04 16.38 111.24 16.14 111.62 16.14H118.25ZM117.79 28.31C118.743 28.2917 119.695 28.3755 120.63 28.56C121.286 28.6877 121.911 28.9425 122.47 29.31C122.918 29.6165 123.265 30.0476 123.47 30.55C123.68 31.1056 123.782 31.6962 123.77 32.29C123.781 32.8902 123.693 33.4881 123.51 34.06C123.317 34.5744 122.967 35.0152 122.51 35.32C121.958 35.693 121.335 35.9483 120.68 36.07C119.715 36.2559 118.733 36.3397 117.75 36.32C116.8 36.3378 115.852 36.254 114.92 36.07C114.262 35.9425 113.636 35.6841 113.08 35.31C112.632 34.9912 112.285 34.5504 112.08 34.04C111.86 33.4765 111.755 32.8747 111.77 32.27C111.761 31.6797 111.849 31.0919 112.03 30.53C112.206 30.0285 112.535 29.5948 112.97 29.29C113.521 28.9166 114.145 28.6643 114.8 28.55C115.786 28.3696 116.788 28.2892 117.79 28.31V28.31ZM117.71 33.69C118.288 33.6986 118.867 33.6652 119.44 33.59C119.823 33.544 120.196 33.4429 120.55 33.29C120.791 33.1946 120.998 33.0269 121.14 32.81C121.264 32.5977 121.326 32.3555 121.32 32.11C121.325 31.883 121.27 31.6586 121.16 31.46C121.022 31.2474 120.818 31.0859 120.58 31C120.225 30.8539 119.852 30.7596 119.47 30.72C118.876 30.6534 118.278 30.6234 117.68 30.63C117.095 30.6234 116.511 30.6535 115.93 30.72C115.546 30.7617 115.169 30.8559 114.81 31C114.568 31.0888 114.359 31.2493 114.21 31.46C114.089 31.655 114.027 31.8806 114.03 32.11C114.026 32.358 114.095 32.6017 114.23 32.81C114.387 33.0254 114.602 33.1918 114.85 33.29C115.215 33.4402 115.598 33.5411 115.99 33.59C116.56 33.6645 117.135 33.6979 117.71 33.69V33.69ZM123.71 19.83C124.09 19.83 124.28 20.08 124.28 20.57V22.21C124.28 22.73 124.09 22.98 123.71 22.98H122.76V26.65C122.76 27.16 122.52 27.42 122.06 27.42H120.68C120.22 27.42 119.99 27.16 119.99 26.65V16.45C119.975 16.3578 119.982 16.2634 120.01 16.1743C120.038 16.0852 120.087 16.004 120.152 15.937C120.217 15.87 120.297 15.8191 120.385 15.7883C120.473 15.7576 120.567 15.7479 120.66 15.76H122.08C122.53 15.76 122.76 16.01 122.76 16.51V19.83H123.71Z" fill="#424142"/>
<path opacity="0.7" d="M52.3 19.87V31.19C52.342 31.8505 52.1255 32.5015 51.6963 33.0054C51.2671 33.5092 50.6588 33.8264 50 33.89H9.39003C9.25713 33.9053 9.12292 33.9053 8.99003 33.89V33.89C8.94592 34.5575 9.16693 35.2154 9.60505 35.721C10.0432 36.2265 10.663 36.5388 11.33 36.59H51.89C52.5578 36.5387 53.1787 36.2268 53.6184 35.7216C54.0581 35.2164 54.2814 34.5585 54.24 33.89V22.53C54.2677 21.932 54.0905 21.3425 53.7377 20.8589C53.385 20.3752 52.8778 20.0264 52.3 19.87V19.87Z" fill="#797979"/>
<path opacity="0.7" d="M22.22 27.08H19.21V27.72H22.22V27.08Z" fill="#797979"/>
<path opacity="0.7" d="M19.6601 23.63C19.7819 23.6362 19.9029 23.6063 20.0079 23.544C20.1128 23.4818 20.1971 23.3899 20.2501 23.28C20.3826 22.9639 20.444 22.6225 20.4301 22.28C20.4301 21.42 20.1801 20.98 19.6601 20.98C19.543 20.973 19.4264 20.9994 19.3237 21.056C19.2211 21.1127 19.1366 21.1973 19.0801 21.3C18.935 21.6123 18.873 21.9567 18.9001 22.3C18.8861 22.6425 18.9475 22.9838 19.0801 23.3C19.1352 23.4046 19.2191 23.4912 19.3219 23.5497C19.4246 23.6081 19.542 23.636 19.6601 23.63V23.63Z" fill="#797979"/>
<path opacity="0.7" d="M30.38 22.44H29.35V25.4H30.38V22.44Z" fill="#797979"/>
<path opacity="0.7" d="M28.23 22.44H27.2V25.4H28.23V22.44Z" fill="#797979"/>
<path opacity="0.7" d="M50.91 17.38L49.62 17.76L49.13 19.32L49.6 19.76L49.82 20.47L49.45 19.91L49.05 19.63L48.77 20.8L48.67 19.63L48.93 18.36L48.36 17.1L47.63 16.92L48.36 16.57L48.8 16.92L49.14 17.39L50.45 16.6C50.1865 16.2801 49.8408 16.0381 49.45 15.9V16L49.58 16.59L49.09 15.85H48.78H8.21003C7.54304 15.9012 6.92318 16.2135 6.48506 16.719C6.04694 17.2245 5.82593 17.8825 5.87003 18.55V29.84C5.82593 30.5075 6.04694 31.1654 6.48506 31.671C6.92318 32.1765 7.54304 32.4888 8.21003 32.54H48.78C49.447 32.4888 50.0669 32.1765 50.505 31.671C50.9431 31.1654 51.1641 30.5075 51.12 29.84V18.48C51.1229 18.1031 51.0516 17.7293 50.91 17.38ZM11.6 20.25C11.6 20.02 11.69 19.9 11.87 19.9H12.5V19.71C12.5 19.52 12.57 19.43 12.73 19.43H13.37C13.51 19.43 13.59 19.52 13.59 19.71V19.9H15.27C15.46 19.9 15.55 20 15.55 20.21V20.86C15.55 21.08 15.46 21.18 15.28 21.18H13.28C13.28 21.32 13.2 21.46 13.17 21.59C14.7434 21.2633 15.5267 22.41 15.52 25.03C15.52 25.28 15.43 25.41 15.24 25.41H14.7C14.51 25.41 14.42 25.29 14.42 25.05C14.42 23.21 13.92 22.51 12.92 22.93C12.8459 23.6174 12.8125 24.3086 12.82 25C12.82 25.25 12.72 25.37 12.51 25.37H12C11.81 25.37 11.72 25.25 11.72 25C11.7175 23.7007 11.8651 22.4054 12.16 21.14H11.84C11.68 21.14 11.6 21.04 11.6 20.84V20.25ZM17 28.55C17 28.77 16.92 28.89 16.75 28.89H16.12C15.95 28.89 15.86 28.78 15.86 28.56V27.18H13.67V28.61C13.67 28.8 13.59 28.89 13.45 28.89H12.77C12.61 28.89 12.53 28.78 12.53 28.57V27.18H11.84C11.67 27.18 11.58 27.06 11.58 26.84V26.22C11.58 26 11.67 25.89 11.84 25.88H15.9V20C15.9 19.78 15.99 19.67 16.17 19.67H16.77C16.95 19.67 17.04 19.78 17.04 19.99L17 28.55ZM17.8 22.24C17.7956 21.8614 17.8258 21.4831 17.89 21.11C17.9339 20.8224 18.036 20.5468 18.19 20.3C18.3269 20.0896 18.5212 19.923 18.75 19.82C19.0245 19.7024 19.3217 19.6477 19.62 19.66C19.8637 19.6561 20.1066 19.6898 20.34 19.76C20.546 19.8285 20.7364 19.9373 20.9 20.08C21.0679 20.239 21.1978 20.4339 21.28 20.65C21.3765 20.9162 21.4272 21.1968 21.43 21.48H22.08V20C22.08 19.79 22.2 19.68 22.45 19.68H22.85C22.8989 19.6734 22.9486 19.6781 22.9952 19.6939C23.0419 19.7096 23.0844 19.736 23.1192 19.7708C23.154 19.8057 23.1804 19.8481 23.1961 19.8948C23.2119 19.9414 23.2166 19.9911 23.21 20.04V24.34C23.21 24.6 23.11 24.74 22.89 24.74H22.42C22.19 24.74 22.08 24.6 22.08 24.32V22.88H21.44C21.427 23.1801 21.3697 23.4766 21.27 23.76C21.1939 23.9884 21.0674 24.1969 20.9 24.37C20.7444 24.5279 20.552 24.6447 20.34 24.71C20.1072 24.7837 19.8643 24.8208 19.62 24.82C19.3157 24.8266 19.013 24.7722 18.73 24.66C18.5013 24.5561 18.3095 24.3852 18.18 24.17C18.0271 23.9272 17.9282 23.6544 17.89 23.37C17.8391 22.9956 17.8224 22.6174 17.84 22.24H17.8ZM23.28 28.47C23.28 28.75 23.16 28.89 22.92 28.89H18.39C18.3498 28.8952 18.309 28.8909 18.2707 28.8775C18.2324 28.8641 18.1978 28.842 18.1697 28.8128C18.1415 28.7837 18.1205 28.7484 18.1084 28.7097C18.0963 28.671 18.0935 28.63 18.1 28.59V25.59C18.1 25.37 18.2 25.26 18.42 25.26H18.89C18.9342 25.2549 18.9789 25.2601 19.0207 25.275C19.0625 25.29 19.1003 25.3143 19.1313 25.3462C19.1622 25.3781 19.1854 25.4167 19.199 25.4589C19.2127 25.5012 19.2164 25.546 19.21 25.59V26H22.21V25.55C22.21 25.33 22.31 25.22 22.51 25.22H23C23.21 25.22 23.32 25.31 23.32 25.5L23.28 28.47ZM31.47 28.55C31.47 28.77 31.38 28.89 31.2 28.9H26.4C26.19 28.9 26.09 28.76 26.09 28.49V28.05C26.09 27.78 26.21 27.64 26.44 27.64H28.2V26.64H26.44C26.21 26.64 26.1 26.5 26.1 26.23V20.07C26.1 19.8 26.21 19.67 26.44 19.67H26.88C27.1 19.67 27.2 19.8 27.2 20.07V21.22H28.2V20.07C28.2 19.8 28.32 19.67 28.54 19.67H29C29.22 19.67 29.33 19.8 29.33 20.07V21.22H30.33V20.07C30.33 19.8 30.45 19.67 30.68 19.67H31.1C31.32 19.67 31.44 19.8 31.44 20.07V26.22C31.44 26.51 31.33 26.66 31.11 26.66H29.35V27.66H31.2C31.41 27.66 31.51 27.79 31.51 28.06L31.47 28.55ZM33.71 28.55C33.6424 28.6342 33.5549 28.7002 33.4554 28.7421C33.3559 28.784 33.2475 28.8005 33.14 28.79H32.77C32.61 28.79 32.51 28.73 32.48 28.6C32.469 28.5247 32.475 28.4479 32.4974 28.3752C32.5199 28.3026 32.5584 28.2359 32.61 28.18C33.7935 26.14 34.3402 23.7929 34.18 21.44C34.18 21.29 34.12 21.22 34 21.22H32.6C32.43 21.22 32.34 21.1 32.34 20.85V20.29C32.34 20.02 32.44 19.89 32.63 19.89H35.12C35.33 19.89 35.44 20.06 35.44 20.38C35.46 24.1933 34.8967 26.9033 33.75 28.51L33.71 28.55ZM38.26 28.55C38.26 28.77 38.16 28.89 37.96 28.89H37.49C37.29 28.89 37.19 28.78 37.19 28.56V23.64H37V28.55C37 28.77 36.9 28.89 36.7 28.89H36.23C36.02 28.89 35.92 28.78 35.92 28.56V20C35.92 19.79 36.01 19.69 36.2 19.69H36.71C36.9 19.69 37 19.8 37 20.02V22.2H37.28V20C37.28 19.79 37.37 19.69 37.55 19.69H38C38.19 19.69 38.29 19.8 38.29 20.02L38.26 28.55ZM40.43 28.48C40.3587 28.5618 40.2689 28.6254 40.168 28.6654C40.0671 28.7054 39.958 28.7207 39.85 28.71H39.43C39.3697 28.7175 39.3086 28.7035 39.2575 28.6707C39.2063 28.6378 39.1683 28.588 39.15 28.53C39.15 28.41 39.15 28.27 39.32 28.1C40.8633 26.2217 41.6322 23.8256 41.47 21.4C41.47 21.25 41.47 21.18 41.3 21.18H39.4C39.23 21.18 39.15 21.06 39.15 20.81V20.25C39.15 19.98 39.24 19.85 39.42 19.85H42.42C42.64 19.85 42.74 20.02 42.74 20.34C42.75 24.1 42 26.82 40.47 28.48H40.43ZM44.43 28.48C44.43 28.76 44.33 28.9 44.14 28.9H43.58C43.38 28.9 43.27 28.76 43.27 28.5V20C43.27 19.79 43.36 19.68 43.54 19.68H44.15C44.33 19.68 44.43 19.79 44.43 20.01V28.48ZM45.71 19.67H46.32C46.57 19.67 46.69 19.89 46.67 20.34L46.51 26.16C46.51 26.41 46.39 26.54 46.21 26.56H45.79C45.6167 26.56 45.5167 26.44 45.49 26.2L45.29 20.34C45.27 19.89 45.41 19.66 45.7 19.67H45.71ZM46.39 28.89H45.66C45.44 28.89 45.33 28.76 45.34 28.49L45.41 27.59C45.41 27.37 45.52 27.25 45.68 27.26H46.43C46.6 27.26 46.7 27.4 46.72 27.67V28.49C46.76 28.77 46.64 28.91 46.38 28.89H46.39Z" fill="#797979"/>
<g opacity="0.7">
<path d="M48.53 13.68L48.96 14.68L49.27 14.87L49.12 14.19L49.2 13.41L48.53 13.68Z" fill="#797979"/>
<path d="M52.9301 14.33L51.8701 16.51L54.2401 15.42V13.95L52.9301 14.33Z" fill="#797979"/>
<path d="M51.8701 14.65V15.06L52.2701 14.65L52.0701 14.31L51.8701 14.65Z" fill="#797979"/>
</g>
<path d="M57.7 23.7199L49.72 20.2L52.77 29.3899L54.76 27.1L57.1 29.7999L58.06 28.7L55.72 26L57.7 23.7199Z" fill="#797979"/>
</g>
</svg>
